<?xml version="1.0" standalone="no"?>
<!DOCTYPE svg PUBLIC "-//W3C//DTD SVG 20010904//EN"
 "http://www.w3.org/TR/2001/REC-SVG-20010904/DTD/svg10.dtd">
<svg version="1.0" xmlns="http://www.w3.org/2000/svg"
 width="1600.000000pt" height="1600.000000pt" viewBox="0 0 1600.000000 1600.000000"
 preserveAspectRatio="xMidYMid meet">
<metadata>
Created by potrace 1.15, written by Peter Selinger 2001-2017
</metadata>
<g transform="translate(0.000000,1600.000000) scale(0.100000,-0.100000)"
fill="#000000" stroke="none">
<path d="M7166 14684 l-26 -27 0 -543 0 -543 -47 -6 c-101 -14 -475 -97 -613
-136 -484 -137 -929 -327 -1360 -582 -98 -58 -346 -221 -405 -266 l-40 -30
-390 389 c-363 363 -393 390 -430 394 l-40 5 -567 -567 c-562 -561 -568 -567
-568 -607 0 -39 6 -46 392 -432 l391 -391 -30 -39 c-47 -61 -154 -219 -225
-333 -376 -603 -655 -1340 -766 -2022 l-17 -108 -541 0 -541 0 -27 -26 -26
-27 0 -797 0 -797 26 -27 27 -26 541 0 541 0 18 -112 c27 -166 99 -476 153
-655 170 -572 447 -1148 773 -1608 l71 -100 -385 -385 c-358 -358 -385 -388
-389 -425 l-5 -40 567 -567 c561 -562 567 -568 607 -568 39 0 46 6 425 385
l384 384 50 -37 c426 -308 938 -576 1441 -753 261 -92 622 -186 903 -235 l102
-17 0 -542 0 -542 26 -27 27 -26 797 0 797 0 27 26 26 27 2 540 3 540 135 23
c508 85 1026 254 1505 489 297 146 565 306 823 491 l53 38 375 -375 c353 -353
376 -374 412 -375 36 -2 49 10 605 565 560 559 567 566 567 606 0 39 -7 47
-377 417 l-376 376 35 49 c379 520 709 1228 867 1858 51 205 62 255 90 415
l27 155 546 3 545 2 27 26 26 27 0 797 0 797 -26 27 -27 26 -545 2 -546 3 -22
130 c-124 734 -423 1486 -839 2115 -56 85 -120 179 -141 208 l-38 53 380 380
c358 358 379 381 380 417 2 36 -10 49 -565 605 -559 560 -566 567 -606 567
-39 0 -47 -7 -421 -381 l-381 -381 -139 95 c-673 459 -1446 771 -2244 906
l-105 18 -3 540 -2 540 -26 27 -27 26 -797 0 -797 0 -27 -26z m1134 -2229
c177 -7 340 -24 340 -35 0 -5 30 -11 68 -15 63 -6 160 -22 295 -47 31 -6 57
-14 57 -18 0 -4 17 -11 38 -14 20 -4 66 -13 102 -21 36 -8 77 -17 92 -20 15
-3 33 -11 40 -18 12 -12 99 -39 168 -53 31 -7 71 -25 88 -41 7 -7 21 -13 30
-13 9 -1 42 -10 72 -21 30 -11 63 -23 73 -26 9 -3 17 -9 17 -13 0 -5 17 -14
38 -20 20 -6 46 -15 57 -20 11 -5 32 -14 48 -20 15 -5 27 -14 27 -19 0 -5 17
-15 38 -22 20 -6 46 -18 57 -25 11 -8 27 -14 37 -14 9 0 21 -6 25 -13 4 -8 40
-29 78 -48 39 -18 72 -36 75 -39 13 -14 68 -48 98 -59 17 -8 32 -20 32 -27 0
-8 10 -14 25 -14 14 0 25 -4 25 -9 0 -5 18 -17 40 -27 22 -10 40 -24 40 -31 0
-7 5 -13 10 -13 14 0 93 -52 103 -67 4 -7 15 -13 23 -13 8 0 17 -7 20 -15 3
-8 13 -17 23 -20 9 -3 37 -23 61 -45 24 -22 50 -40 57 -40 8 0 18 -11 23 -25
5 -14 14 -25 20 -25 6 0 19 -7 28 -15 9 -8 33 -28 52 -45 19 -17 69 -63 111
-103 42 -39 85 -77 95 -83 11 -6 28 -25 39 -42 11 -17 25 -31 31 -32 7 0 20
-12 29 -27 10 -16 38 -48 63 -73 92 -94 102 -105 102 -114 0 -4 16 -25 35 -45
65 -68 95 -103 95 -108 0 -7 63 -87 72 -91 5 -2 8 -10 8 -18 0 -8 4 -14 10
-14 5 0 16 -15 24 -34 8 -19 21 -38 28 -42 8 -5 23 -25 34 -44 10 -19 27 -45
38 -57 23 -27 39 -55 62 -105 9 -21 22 -38 30 -38 8 0 14 -6 14 -13 0 -15 58
-130 70 -137 7 -5 41 -74 60 -125 5 -14 14 -25 20 -25 5 0 10 -5 10 -11 0 -10
40 -103 61 -141 5 -10 9 -25 9 -33 0 -8 3 -15 8 -15 8 0 42 -73 42 -90 0 -11
24 -68 50 -120 16 -31 41 -110 57 -180 4 -14 12 -35 20 -47 15 -22 63 -204 63
-235 0 -10 4 -18 9 -18 13 0 71 -269 71 -331 0 -21 4 -40 9 -43 26 -17 64
-460 64 -746 0 -286 -39 -730 -64 -746 -5 -3 -9 -19 -9 -37 0 -28 -7 -69 -42
-247 -6 -30 -17 -68 -24 -85 -7 -16 -24 -75 -38 -130 -36 -140 -39 -149 -45
-155 -9 -7 -41 -102 -41 -121 0 -8 -10 -37 -23 -65 -40 -84 -57 -124 -57 -134
0 -17 -34 -90 -42 -90 -5 0 -8 -7 -8 -15 0 -8 -4 -23 -10 -33 -14 -25 -60
-132 -60 -139 0 -3 -6 -11 -14 -17 -7 -6 -26 -41 -41 -78 -15 -38 -31 -68 -36
-68 -4 0 -20 -28 -37 -63 -16 -34 -41 -76 -55 -91 -15 -16 -27 -35 -27 -43 0
-8 -18 -38 -40 -68 -22 -30 -40 -59 -40 -65 0 -5 -4 -10 -10 -10 -5 0 -10 -7
-10 -15 0 -8 -13 -27 -30 -42 -16 -14 -30 -34 -30 -44 0 -9 -7 -19 -15 -23 -8
-3 -15 -12 -15 -21 0 -8 -4 -15 -9 -15 -4 0 -21 -19 -36 -42 -16 -24 -41 -56
-57 -72 -15 -17 -28 -35 -28 -40 0 -6 -18 -26 -40 -45 -22 -19 -40 -40 -40
-47 0 -7 -14 -23 -30 -36 -17 -12 -30 -25 -30 -30 0 -12 -42 -58 -54 -58 -6 0
-21 -18 -33 -39 -13 -22 -32 -42 -43 -46 -11 -3 -20 -12 -20 -18 0 -14 -57
-67 -71 -67 -5 0 -9 -6 -9 -13 0 -14 -52 -57 -69 -57 -5 0 -12 -8 -16 -19 -3
-10 -17 -27 -32 -37 -15 -11 -41 -32 -58 -49 -17 -16 -48 -41 -68 -55 -20 -14
-37 -30 -37 -35 0 -6 -16 -19 -36 -30 -20 -11 -43 -30 -51 -42 -9 -13 -21 -23
-27 -23 -7 0 -22 -9 -34 -20 -12 -11 -29 -20 -38 -20 -9 0 -18 -8 -21 -18 -2
-10 -12 -22 -22 -27 -10 -6 -34 -19 -54 -29 -20 -11 -37 -26 -37 -33 0 -7 -7
-13 -15 -13 -14 0 -76 -37 -105 -63 -8 -7 -32 -21 -53 -31 -22 -10 -46 -25
-56 -35 -9 -9 -48 -32 -86 -50 -39 -19 -72 -37 -75 -40 -7 -9 -115 -61 -127
-61 -5 0 -23 -11 -39 -25 -16 -14 -36 -25 -45 -25 -8 0 -24 -7 -35 -15 -10 -8
-29 -15 -41 -15 -12 0 -30 -8 -40 -18 -10 -10 -58 -31 -108 -47 -49 -16 -96
-35 -103 -42 -7 -7 -25 -15 -40 -18 -15 -3 -40 -10 -57 -16 -16 -6 -49 -15
-72 -21 -24 -5 -43 -13 -43 -17 0 -8 -45 -21 -180 -53 -52 -12 -97 -25 -100
-29 -3 -3 -30 -11 -60 -17 -151 -30 -220 -42 -277 -47 -35 -4 -63 -10 -63 -15
0 -20 -422 -53 -685 -53 -269 0 -685 33 -685 54 0 4 -30 10 -67 14 -62 6 -131
17 -280 46 -29 6 -53 14 -53 19 0 5 -17 12 -37 15 -21 4 -60 13 -88 20 -27 7
-67 16 -87 19 -21 4 -43 12 -50 19 -11 10 -75 31 -200 64 -10 2 -24 10 -30 16
-7 7 -53 25 -103 42 -49 16 -98 38 -108 47 -10 10 -29 18 -42 18 -13 0 -26 4
-30 9 -3 5 -22 15 -43 22 -20 6 -45 20 -55 30 -10 11 -24 19 -32 19 -8 0 -29
9 -47 20 -18 11 -41 20 -50 20 -9 0 -21 6 -25 14 -4 7 -39 28 -78 47 -38 19
-74 40 -78 46 -4 7 -15 13 -22 13 -8 0 -15 4 -15 8 0 4 -16 14 -35 21 -19 7
-40 21 -45 32 -6 10 -19 19 -29 19 -10 0 -26 9 -36 20 -10 11 -27 20 -37 20
-10 0 -21 7 -25 16 -3 8 -30 29 -59 46 -30 16 -54 36 -54 44 0 8 -7 14 -16 14
-15 0 -30 10 -118 83 -21 18 -47 35 -57 39 -11 4 -19 14 -19 23 0 8 -4 15 -8
15 -12 0 -52 31 -85 68 -17 17 -36 32 -44 32 -7 0 -22 13 -34 30 -13 16 -40
42 -60 56 -21 14 -41 34 -44 43 -2 9 -15 21 -27 26 -13 6 -32 24 -43 42 -11
18 -26 32 -33 33 -7 0 -21 15 -32 33 -11 17 -35 45 -55 60 -19 15 -35 34 -35
41 0 8 -16 26 -35 40 -19 15 -35 34 -35 42 0 8 -7 17 -15 20 -8 4 -15 12 -15
19 0 8 -9 17 -20 20 -11 3 -20 10 -20 15 0 9 -81 116 -125 165 -15 17 -34 45
-41 62 -8 18 -23 39 -34 45 -11 7 -20 21 -20 30 0 10 -4 18 -8 18 -5 0 -17 18
-28 40 -10 22 -25 40 -31 40 -7 0 -13 9 -13 20 0 11 -4 20 -9 20 -5 0 -14 13
-19 30 -6 16 -22 45 -35 62 -14 18 -39 62 -57 98 -18 36 -36 67 -39 70 -4 3
-15 23 -25 45 -27 62 -50 110 -56 115 -7 6 -34 64 -55 115 -9 22 -19 47 -24
55 -32 62 -40 79 -51 110 -6 19 -15 46 -18 60 -3 13 -10 30 -17 36 -6 6 -17
31 -24 55 -7 24 -19 64 -27 89 -8 25 -14 53 -14 63 0 9 -4 17 -8 17 -10 0 -34
78 -58 185 -10 44 -21 82 -24 85 -13 10 -70 309 -70 363 0 20 -4 37 -8 37 -16
0 -33 160 -47 424 -11 217 -11 302 1 530 13 273 30 426 46 426 4 0 8 16 8 36
0 56 57 354 69 364 4 3 15 41 25 85 26 117 47 185 56 185 4 0 10 15 13 33 2
17 9 46 15 62 6 17 16 50 23 74 7 24 18 49 24 55 5 6 18 38 28 71 20 63 22 68
52 125 40 78 45 89 45 106 0 9 10 31 23 48 22 31 42 69 71 136 15 34 22 47 59
102 9 14 17 31 17 37 0 11 49 91 61 101 4 3 17 27 30 54 12 27 32 59 43 71 12
13 30 40 41 62 11 21 28 44 38 51 9 7 26 31 37 52 20 39 29 51 90 118 16 19
30 36 30 38 0 10 54 79 82 106 15 15 28 34 28 42 0 9 3 16 8 16 11 0 72 54 72
64 0 5 20 30 45 55 25 25 72 73 104 106 61 63 174 168 229 212 17 14 32 32 32
39 0 8 7 14 16 14 8 0 33 18 54 40 21 22 41 40 45 40 9 0 71 47 114 87 20 18
41 33 48 33 7 0 20 8 30 18 10 10 37 31 61 46 23 16 42 33 42 37 0 5 6 9 14 9
8 0 28 11 44 25 17 14 37 25 46 25 9 0 19 7 22 15 3 8 21 20 40 27 19 6 34 15
34 19 0 4 16 13 35 20 19 7 35 16 35 20 0 5 29 22 65 39 36 17 65 35 65 41 0
5 6 9 13 9 6 0 35 11 62 25 28 13 55 25 62 25 7 0 16 6 20 13 10 15 48 37 65
37 7 0 25 6 39 14 14 7 38 16 53 20 15 4 37 16 49 26 11 11 30 20 41 20 12 1
32 7 46 15 14 8 35 14 47 15 12 0 29 7 38 16 16 16 103 45 189 64 21 4 41 12
45 18 3 5 24 14 46 20 55 15 164 40 203 47 17 4 32 10 32 14 0 8 96 31 132 31
14 0 56 7 94 15 38 8 99 17 137 20 37 4 67 10 67 14 0 5 24 12 53 16 90 13
518 33 612 29 50 -2 160 -6 245 -9z"/>
<path d="M7770 11330 c-1154 -92 -2150 -735 -2702 -1745 -154 -283 -267 -590
-332 -900 -154 -748 -58 -1505 278 -2175 171 -340 367 -612 636 -880 794 -793
1910 -1129 3020 -910 515 102 1015 338 1441 681 137 110 382 356 492 494 609
760 856 1709 696 2665 -62 371 -200 758 -389 1087 -87 150 -273 421 -292 422
-8 1 -47 -101 -117 -304 l-52 -150 54 -90 c286 -476 426 -977 427 -1526 0 -97
-5 -223 -10 -280 -67 -683 -355 -1298 -830 -1779 -303 -305 -623 -517 -1020
-673 -675 -265 -1454 -265 -2130 0 -890 349 -1558 1114 -1779 2036 -184 767
-54 1577 356 2236 335 537 835 953 1423 1184 604 236 1300 262 1929 70 229
-69 499 -193 689 -315 l62 -41 223 78 c122 42 228 80 235 84 22 12 -219 184
-421 301 -391 225 -852 373 -1304 419 -151 16 -451 21 -583 11z"/>
<path d="M10055 10370 c-223 -80 -494 -170 -645 -213 -542 -156 -904 -173
-1415 -67 -82 18 -197 38 -255 45 -558 74 -1153 -143 -1580 -575 -300 -304
-491 -686 -555 -1111 -17 -114 -20 -352 -5 -466 46 -346 190 -659 417 -904 33
-35 72 -86 88 -114 135 -238 456 -589 705 -771 68 -50 174 -114 188 -114 6 0
41 -28 79 -63 232 -212 489 -344 798 -408 144 -30 434 -37 588 -15 647 94
1214 512 1506 1111 93 191 149 375 176 582 28 216 17 404 -44 693 -49 236 -64
376 -65 585 -1 393 55 644 320 1415 81 235 83 289 10 368 -66 73 -151 79 -311
22z m-245 -577 c0 -23 -274 -670 -427 -1008 -194 -427 -448 -922 -633 -1230
-206 -342 -368 -521 -636 -700 -102 -68 -301 -171 -388 -200 -301 -99 -590
-103 -777 -10 -56 29 -262 232 -290 287 -54 105 -64 162 -63 353 0 200 12 270
81 455 109 296 347 620 587 799 381 285 1135 673 2106 1084 445 188 440 187
440 170z m-2172 -63 c51 -6 148 -21 215 -35 162 -34 365 -65 421 -65 56 0 59
-16 9 -37 -21 -8 -157 -75 -303 -148 -842 -420 -1181 -682 -1483 -1146 -60
-92 -160 -286 -200 -389 -30 -76 -83 -257 -92 -315 -12 -77 -20 -72 -73 36
-88 183 -121 315 -129 519 -28 694 488 1364 1182 1538 83 21 198 40 275 45 25
2 54 4 65 5 11 1 62 -3 113 -8z m2002 -1467 c0 -58 29 -243 64 -413 64 -311
53 -524 -40 -792 -163 -469 -541 -841 -1012 -997 -280 -93 -600 -93 -872 -1
-68 23 -243 110 -236 118 2 2 44 12 93 23 401 87 843 348 1138 673 232 255
480 668 784 1304 34 72 67 132 72 132 5 0 9 -21 9 -47z"/>
</g>
</svg>
